<?xml version="1.0" encoding="UTF-8"?>
<svg id="Layer_1" xmlns="http://www.w3.org/2000/svg" version="1.1" xmlns:xlink="http://www.w3.org/1999/xlink" viewBox="0 0 850.51 396.76">
  <!-- Generator: Adobe Illustrator 30.3.0, SVG Export Plug-In . SVG Version: 2.1.3 Build 182)  -->
  <defs>
    <style>
      .st0 {
        fill: #19bbbd;
      }

      .st1, .st2 {
        fill: #fff;
      }

      .st2, .st3, .st4, .st5 {
        fill-rule: evenodd;
      }

      .st6 {
        fill: #44bdc1;
      }

      .st7 {
        fill: #373841;
      }

      .st8 {
        fill: #181b48;
      }

      .st3 {
        fill: url(#linear-gradient1);
      }

      .st9 {
        fill: #2f2d37;
      }

      .st10 {
        fill: #19b8bb;
      }

      .st11 {
        fill: #19babc;
      }

      .st12 {
        fill: #1a1c2e;
      }

      .st4 {
        fill: url(#linear-gradient);
      }

      .st13 {
        fill: #fdfdfd;
      }

      .st14 {
        fill: #272532;
      }

      .st5 {
        fill: url(#linear-gradient2);
      }
    </style>
    <linearGradient id="linear-gradient" x1="20.25" y1="351.13" x2="91.49" y2="351.13" gradientTransform="translate(0 398) scale(1 -1)" gradientUnits="userSpaceOnUse">
      <stop offset=".42" stop-color="#19bbbd"/>
      <stop offset=".68" stop-color="#3fa8d3"/>
      <stop offset=".8" stop-color="#559fe0"/>
    </linearGradient>
    <linearGradient id="linear-gradient1" x1="4.3" y1="330.83" x2="32.42" y2="330.83" gradientTransform="translate(0 398) scale(1 -1)" gradientUnits="userSpaceOnUse">
      <stop offset=".42" stop-color="#19bbbd"/>
      <stop offset=".68" stop-color="#3fa8d3"/>
      <stop offset=".8" stop-color="#559fe0"/>
    </linearGradient>
    <linearGradient id="linear-gradient2" x1=".02" y1="377.8" x2="40.42" y2="377.8" gradientTransform="translate(0 398) scale(1 -1)" gradientUnits="userSpaceOnUse">
      <stop offset=".42" stop-color="#19bbbd"/>
      <stop offset=".68" stop-color="#3fa8d3"/>
      <stop offset=".8" stop-color="#559fe0"/>
    </linearGradient>
  </defs>
  <g>
    <path class="st1" d="M421.7,226.22l1.29-3.06c.34-22.63.34-45.41,0-68.04-.2-1.3-2.42-3.13-.26-3.37,5.45-.62,15.32-.24,21.04,0,8.56.37,15.34,1.7,22.33,6.79,20.72,15.11,20.56,45.13.46,60.76-13.14,10.21-29.39,6.09-44.87,6.92h.01ZM432.51,217.81c5.85-.12,11.65.46,17.42-.75,24.12-5.03,30.01-37.24,10.3-51.44-8.51-6.13-17.7-5.23-27.72-5.16v57.34h0Z"/>
    <path class="st1" d="M555,226.22h-12.61c.01-7.47-4.9-14.35-7.5-21.17h-32.43l-6.75,15.17c-.58,1.95-.9,3.96-.76,6h-12.61l3.27-5.29,30-68.17c.43-1.54,5.25-1.3,5.9-.37l30.14,68.34,3.35,5.5h0ZM506.07,196.49h25.22l-12.76-28.82-12.46,28.82h0Z"/>
    <path class="st1" d="M601.24,166.47c-7.34-6.49-26.39-10.15-30.39,1.59-4.5,13.21,19.77,16.95,27.89,21.78,15.15,9.01,11.79,28.42-3.6,34.93-11.12,4.71-24.01,1.42-33.53-5.31v-11.86l6.15,4.51c7.8,5.71,25.81,9.15,30.14-2.3,4.78-12.63-14.18-15.56-22.29-19.37-7.19-3.38-14.01-8.75-14.87-17.26-2.16-21.39,25.9-27.25,40.49-17.68v10.96h0Z"/>
    <path class="st1" d="M741.44,151.76v11.41c-1.04-.49-2.12-1.11-3.24-1.41-.75-.21-2.87-.69-3.52-.69h-23.87v21.32h25.07c.64,0,2.66-1.02,3.45-1.2v11.41c-.5-.07-1.96-.9-2.25-.9h-26.27v30.47c0,.73,1.48,3.2,1.8,4.05h-12.91c.67-1.5,1.75-2.92,1.81-4.64v-64.87c.07-1.84-1.6-3.15-1.51-4.94h41.44Z"/>
    <path class="st1" d="M757.96,152.06c.23,2.08,1.21,3.97,2.16,5.8l18.41,27.22,18.41-27.22c1.04-1.8,1.74-3.76,2.16-5.8h12.91c-.6,1.56-2.38,2.62-3.46,3.9-.69.82-1.43,1.85-2.07,2.73-8.2,11.39-15.09,24.43-23.16,35.99.38,8.55-.98,18.48-.13,26.88.17,1.73,1.04,3.15,1.8,4.66h-12.91c.7-1.43,1.63-3.03,1.8-4.65.9-8.32-.57-18.39-.14-26.89-8.42-11.69-15.32-25.59-23.93-37.01-1.32-1.75-3.11-3.14-4.3-4.7-.23-.3-.58-.38-.45-.9h12.91,0Z"/>
    <path class="st1" d="M665.19,162.57c-.17.19-4.07-1.8-4.65-1.8h-18.46v60.8c0,1.21,1.57,3.38,1.8,4.65h-12.61c.11-1.1,1.8-3.44,1.8-4.35v-61.1h-18.76c-.92,0-3.26,1.69-4.35,1.8v-10.36s.42-.45.45-.45h54.34s.45.42.45.45v10.36h-.01Z"/>
    <path class="st1" d="M685.6,152.06l-1.67,4.19-.15,64.73c.08,1.92,1.28,3.48,1.81,5.24h-12.61c0-1.3,1.11-2.32,1.37-3.59l.14-65.93-1.51-4.64h12.62Z"/>
    <path class="st1" d="M691.54,257.74c6.25,9.51,13.01,18.74,18.31,28.82l-.15-28.82h4.5v35.73h-5.1c-5.93-10.04-13.18-19.3-18.46-29.73l.15,29.73h-4.5v-35.73h5.25Z"/>
    <path class="st1" d="M661,257.22c24.84-2.8,25.27,34.65,4.68,36.81-24.94,2.61-25.27-34.48-4.68-36.81ZM661.3,261.12c-13.75,2-13.38,31.02,3.79,29.01,14.17-1.66,13.61-31.54-3.79-29.01Z"/>
    <path class="st1" d="M522.6,257.22c15.03-1.7,22.32,11.66,18.39,24.99-1.85,6.28-7.04,11.12-13.7,11.82-24.99,2.62-25.16-34.49-4.68-36.81h-.01ZM522.9,261.12c-13.68,1.97-13.41,31.03,3.79,29.01,14.18-1.66,13.63-31.52-3.79-29.01Z"/>
    <path class="st1" d="M577.01,257.74v22.97c0,3.06,2.03,7.23,4.83,8.68,6.36,3.27,12.88-2.02,12.88-8.68v-22.97h4.8v24.77c0,2.01-2.28,6.5-3.74,7.97-5.32,5.36-17.57,5-21.54-1.91-.56-.98-2.04-4.81-2.04-5.76v-25.07h4.81Z"/>
    <path class="st1" d="M501.91,258.68l-.88,3.85c-3.64-.87-6.95-2.24-10.74-.98-3.8,1.27-5.09,5.77-2.14,8.62,4.24,4.1,14.54,3.68,15.3,12.02,1.17,12.81-14.11,13.99-22.83,9.76l1.2-4.19c5.3,3.68,18.88,3.94,16.37-5.71-1.32-5.07-13.73-4.97-16.21-12.01-4.1-11.58,12.06-15.71,19.92-11.36h0Z"/>
    <path class="st1" d="M741.8,258.68c.46.74-1.15,3.21-1.17,4.16-4.62-3.37-17.25-2.09-13.78,5.83,2.12,4.83,13.84,4.37,16.1,11.82,4.01,13.26-13.73,16.4-22.43,11.46l1.2-4.19c5.13,3.73,19.03,3.8,16.31-5.65-1.62-5.61-15.17-5.11-16.54-13.18-1.59-9.37,7.35-12.52,15.05-11.75.75.08,5,1.1,5.25,1.5h.01Z"/>
    <path class="st1" d="M631.35,257.74v3.9h-11.41v31.82h-4.8v-31.37s-.42-.45-.45-.45h-10.96v-3.9h27.62Z"/>
    <polygon class="st1" points="552.69 257.74 552.69 289.56 568.6 289.56 568.6 293.47 547.89 293.47 547.89 257.74 552.69 257.74"/>
    <rect class="st1" x="776.96" y="274.25" width="73.56" height="2.7"/>
    <rect class="st1" x="373.75" y="274.25" width="73.56" height="2.7"/>
    <rect class="st1" x="635.25" y="257.74" width="4.8" height="35.73"/>
  </g>
  <g>
    <path class="st1" d="M168.26,48.58c103.79-3.64,186.79,82.17,180.46,185.72-5.27,86.11-75.13,155.8-160.94,162C90.04,403.35,5.66,328.71.93,230.95-3.72,134.57,71.83,51.96,168.26,48.58ZM117.99,76.1c-.63.11-1.61-.02-2.32,0-.48.01-1.12-.06-1.68,0-.28.03-.57-.02-.84,0-.01.35.02.7,0,1.05-4.05.59-8.52,2.81-12.07,4.88-.33.2-.82.44-.99.8h13.05c-.01,3.02,0,6.04,0,9.05l-27.64.04c-.46.11-6.94,5.01-7.62,5.65-.21.2-.55.39-.54.73l35.79.11v8.84h-46.63c-.86.17-5.09,5.32-6,6.31h52.63v9.48h-61.78l-.54.31-3.99,6.11,66.32.11v9.26H40.88l-4.15,6.21,76.42.32v9.68H32.62c-.48.09-1.1,1.43-1.4,1.96-.93,1.63-1.66,3.41-2.49,5.09l84.42.11v8.63H25.89l-.49.35-2.57,6.7,90.32.11v9.26H21.7l-2.66,6.84,94.11.11v8.42H17.91l-1.18,6.84,96.43.32v9.26h.21v11.37h-.21v6.32l-96.42.11,2.03,6.85h94.4v8.83l-94.11.11c-.03.41,2.36,6.4,2.63,6.63.13.11.24.21.42.21h91.05v10.1l-88.84.11,2.66,7.06h86.18v8.41l-83.79.32,4.32,6,.42.21h79.05v10.1l-75.58.11,4.47,6.16.26.06,70.85-.02v9.47l-64,.11,3.94,6.21h60.06v10.52l-45.9.11,2.88,6.85h43.02v8.41l-25.9.32,1.61,6.43h24.29v13.25c.49.01.99-.02,1.47,0s.98-.02,1.47,0c.6.02,1.35-.08,1.89,0,1.85.28,5.66,2.01,7.79,2.63,62.11,18.25,129.65-.34,170.52-50.74,21.3-26.27,32.5-57.85,34.11-91.68.18-3.84.14-7.52,0-11.37-1.3-34.83-12.72-67.04-34.74-93.99-41.23-50.46-108.4-69.19-170.89-50.9-1.83.54-5.28,2.11-6.79,2.37h0Z"/>
    <path class="st0" d="M330.41,229.99c-1.61,33.83-12.81,65.4-34.11,91.68-40.86,50.4-108.4,68.99-170.52,50.74-2.13-.63-5.94-2.35-7.79-2.63v-62.52h65.38c15.31-.8,30.06-5.9,42.48-14.77,19.89-14.22,32.58-37.43,33.2-62.06,23.79-.13,47.58-.18,71.37-.42v-.02Z"/>
    <path class="st0" d="M330.41,218.62c-9.58.05-19.17-.06-28.75,0-14.17.08-28.44.34-42.62.43,1.41-34.23-20.07-65.66-51.95-77.42-8.52-3.14-17.37-4.65-26.46-4.91h-62.64v-60.62c1.51-.26,4.96-1.84,6.79-2.37,62.49-18.29,129.66.44,170.89,50.9,22.02,26.95,33.44,59.17,34.74,93.99h0Z"/>
    <path class="st13" d="M117.99,219.25c.79.22,2.76,1.41,3.38,1.99.93.89,2.01,3.05,2.83,3.7.23.18.18.3.43,0l17.41-60.9c3.01-7.26,13.33-6.45,15.21,1.11l18.42,97.89.48-.68,20.68-59.53c2.63-5.86,10.13-6.63,13.96-1.54l10.28,17.97c12.66,0,25.31-.14,37.96-.22,14.18-.09,28.45-.35,42.62-.43,9.58-.05,19.17.06,28.75,0,.14,3.85.18,7.53,0,11.37-23.78.24-47.57.29-71.37.42-13.88.07-27.79.44-41.69.12-1.97-.48-3.44-1.52-4.71-3.08l-7.7-13.24-23.01,65.94c-3.55,6.76-13.46,5.28-15-2.14l-18.2-96-15.22,53.31c-1.9,5.15-7.52,5.35-12.22,2.23-1.13-.75-2.22-2.23-3.09-3.33-.62-.77-1.25-1.71-1.89-2.53-.53-.67-.89-1.22-1.47-1.89s-.33-1.09-1.68-1.26h0v-9.47h.84c.56,0,1.13-.03,1.68,0,.71.04,1.64.02,2.32.21v-.03Z"/>
    <polygon class="st10" points="113.15 202.62 113.15 209.78 16.72 209.46 17.91 202.61 113.15 202.62"/>
    <polygon class="st11" points="113.15 236.73 113.15 243.67 18.75 243.69 16.73 236.83 113.15 236.73"/>
    <polygon class="st11" points="113.15 187.25 113.15 194.2 19.04 194.09 21.7 187.24 113.15 187.25"/>
    <path class="st11" d="M113.15,252.52v6.95H22.1c-.19,0-.29-.09-.42-.21-.27-.24-2.66-6.22-2.63-6.63l94.11-.11h-.01Z"/>
    <polygon class="st10" points="113.15 170.83 113.15 177.99 22.83 177.88 25.4 171.19 25.89 170.83 113.15 170.83"/>
    <polygon class="st10" points="113.15 269.57 113.15 276.73 26.97 276.74 24.31 269.68 113.15 269.57"/>
    <path class="st10" d="M113.15,155.04v7.16l-84.42-.11c.84-1.68,1.56-3.46,2.49-5.09.3-.53.92-1.87,1.4-1.96h80.53Z"/>
    <polygon class="st10" points="113.15 285.15 113.15 291.67 34.1 291.67 33.68 291.46 29.36 285.46 113.15 285.15"/>
    <path class="st6" d="M113.15,138.83v6.53l-76.42-.32,4.15-6.21h72.27Z"/>
    <path class="st0" d="M113.15,301.78v6.32l-70.85.02-.26-.06-4.47-6.16,75.58-.11h0Z"/>
    <path class="st10" d="M113.15,123.05v6.53l-66.32-.11,3.99-6.11.54-.3h61.79Z"/>
    <path class="st0" d="M113.15,317.57v6.32h-60.06l-3.94-6.21,64-.11h0Z"/>
    <path class="st7" d="M117.99,76.1v143.15c-.67-.19-1.61-.17-2.32-.21V76.1c.7-.02,1.69.11,2.32,0Z"/>
    <path class="st11" d="M113.15,107.26v6.32h-52.63c.91-.99,5.15-6.15,6-6.31h46.63,0Z"/>
    <path class="st10" d="M113.15,334.41v6.95h-43.02l-2.88-6.84,45.9-.11h0Z"/>
    <path class="st7" d="M118.2,234.09c-.35.22-.21.81-.21,1.17-.29,23.67,0,47.38,0,71.05v63.46c-.55-.08-1.3.02-1.89,0l.21-138.25c.64.83,1.28,1.78,1.89,2.56h0Z"/>
    <path class="st14" d="M115.68,76.1v142.94c-.56-.03-1.13,0-1.68,0V76.1c.57-.06,1.21.01,1.68,0Z"/>
    <path class="st11" d="M113.15,91.89v6.53l-35.79-.11c-.02-.34.32-.52.54-.73.67-.64,7.15-5.54,7.62-5.65l27.64-.04h-.01Z"/>
    <path class="st12" d="M114.83,229.78l-.21,139.99c-.49-.02-.99.01-1.47,0v-141.27c1.35.17,1.08.58,1.68,1.28Z"/>
    <path class="st9" d="M116.31,231.76l-.21,138.01c-.49-.02-.98.02-1.47,0l.21-139.93c.58.68.94,1.24,1.47,1.92Z"/>
    <path class="st10" d="M113.15,349.78v6.74h-24.29l-1.61-6.42,25.9-.32h0Z"/>
    <path class="st12" d="M113.99,76.1v142.94h-.84v-127.16c0-3.01-.01-6.04,0-9.05,0-1.88-.08-3.8,0-5.68.02-.35-.01-.7,0-1.05.28-.02.57.03.84,0h0Z"/>
    <path class="st10" d="M113.15,77.15c-.08,1.88,0,3.8,0,5.68h-13.05c.17-.36.65-.61.99-.8,3.55-2.07,8.01-4.29,12.07-4.88h0Z"/>
    <path class="st8" d="M117.99,233.93c.87,1.09,2.18,2.85,3.3,3.6,4.7,3.12,10.31,2.93,12.22-2.23l15.22-53.31,18.2,96c1.54,7.42,11.45,8.9,15,2.14l23.01-65.94,7.7,13.24c1.26,1.56,2.74,2.6,4.71,3.08,13.9.33,27.81-.04,41.69-.11-.61,24.64-13.3,47.84-33.2,62.06-12.41,8.87-27.17,13.98-42.48,14.78h-65.38c0-23.33-.29-49.01,0-72.33,0-.36-.35-.78,0-1v.02Z"/>
    <path class="st8" d="M259.04,219.04c-12.65.08-25.31.21-37.96.22l-10.28-17.97c-3.83-5.08-11.33-4.32-13.96,1.54l-20.68,59.53-.48.68-18.42-97.89c-1.88-7.56-12.21-8.36-15.21-1.11l-17.41,60.9c-.25.3-.2.18-.43,0-.82-.64-1.9-2.81-2.83-3.7-.61-.59-2.59-1.77-3.38-1.99v-82.52h62.64c9.09.25,17.95,1.75,26.46,4.9,31.88,11.76,53.36,43.19,51.95,77.42h-.01Z"/>
    <rect class="st0" x="16.72" y="219.51" width="96.64" height="8.95"/>
    <g>
      <path class="st2" d="M55.86,82.5c0-19.66,15.99-35.59,35.65-35.59-19.66,0-35.65-15.99-35.65-35.65,0,19.66-15.93,35.65-35.65,35.65,19.72,0,35.65,15.93,35.65,35.59Z"/>
      <path class="st2" d="M4.29,67.19c7.78,0,14.06,6.32,14.06,14.06,0-7.73,6.32-14.06,14.06-14.06-7.73,0-14.06-6.28-14.06-14.06,0,7.78-6.28,14.06-14.06,14.06Z"/>
      <path class="st2" d="M40.41,20.22C29.23,20.22,20.21,11.19,20.21.02,20.21,11.2,11.18,20.22,0,20.22c11.18,0,20.2,9.03,20.2,20.2,0-11.18,9.03-20.2,20.2-20.2Z"/>
    </g>
    <path class="st4" d="M20.25,46.87c19.66,0,35.59-15.99,35.59-35.65,0,19.66,15.99,35.65,35.65,35.65-19.66,0-35.65,15.93-35.65,35.65,0-19.72-15.93-35.65-35.59-35.65Z"/>
    <path class="st3" d="M18.36,81.23c0-7.78-6.32-14.06-14.06-14.06,7.73,0,14.06-6.32,14.06-14.06,0,7.73,6.28,14.06,14.06,14.06-7.78,0-14.06,6.28-14.06,14.06Z"/>
    <path class="st5" d="M.02,20.2c11.18,0,20.2,9.03,20.2,20.2,0-11.18,9.03-20.2,20.2-20.2-11.18,0-20.2-9.03-20.2-20.2C20.22,11.18,11.19,20.2.02,20.2Z"/>
  </g>
</svg>