<?xml version="1.0" encoding="UTF-8"?>
<svg id="Layer_1" data-name="Layer 1" xmlns="http://www.w3.org/2000/svg" xmlns:xlink="http://www.w3.org/1999/xlink" viewBox="217 -14 426 426">
  <defs>
    <style>
      .cls-1 {
        fill: #19bbbd;
      }

      .cls-2, .cls-3 {
        fill: #fff;
      }

      .cls-3, .cls-4, .cls-5, .cls-6 {
        fill-rule: evenodd;
      }

      .cls-4 {
        fill: url(#linear-gradient-3);
      }

      .cls-7 {
        fill: #44bdc1;
      }

      .cls-8 {
        fill: #373841;
      }

      .cls-5 {
        fill: url(#linear-gradient-2);
      }

      .cls-9 {
        fill: #181b48;
      }

      .cls-10 {
        fill: #2f2d37;
      }

      .cls-11 {
        fill: #19b8bb;
      }

      .cls-12 {
        fill: #19babc;
      }

      .cls-13 {
        fill: #1a1c2e;
      }

      .cls-6 {
        fill: url(#linear-gradient);
      }

      .cls-14 {
        fill: #fdfdfd;
      }

      .cls-15 {
        fill: #272532;
      }
    </style>
    <linearGradient id="linear-gradient" x1="283.32" y1="57.07" x2="351.03" y2="57.07" gradientUnits="userSpaceOnUse">
      <stop offset=".42" stop-color="#19bbbd"/>
      <stop offset=".68" stop-color="#3fa8d3"/>
      <stop offset=".8" stop-color="#559fe0"/>
    </linearGradient>
    <linearGradient id="linear-gradient-2" x1="268.17" y1="76.37" x2="294.89" y2="76.37" xlink:href="#linear-gradient"/>
    <linearGradient id="linear-gradient-3" x1="264.09" y1="31.74" x2="302.49" y2="31.74" xlink:href="#linear-gradient"/>
  </defs>
  <path class="cls-2" d="M423.98,58.71c98.63-3.46,177.51,78.08,171.49,176.5-5,81.83-71.4,148.06-152.95,153.95-92.88,6.71-173.07-64.23-177.56-157.14-4.43-91.59,67.38-170.09,159.02-173.31ZM376.21,84.86c-.6.1-1.53-.02-2.2,0-.45.01-1.06-.05-1.6,0-.26.03-.54-.02-.8,0-.01.33.02.67,0,1-3.85.57-8.09,2.67-11.47,4.64-.32.19-.78.42-.94.76h12.4c-.01,2.87,0,5.74,0,8.6l-26.27.04c-.44.1-6.6,4.76-7.24,5.37-.2.19-.53.37-.51.69l34.01.1c0,2.8,0,5.6,0,8.4h-44.31c-.81.16-4.84,5.06-5.71,6h50.02c0,3,0,6.01,0,9h-58.72s-.51.29-.51.29l-3.8,5.81,63.02.1c0,2.93,0,5.87,0,8.8h-68.68s-3.95,5.9-3.95,5.9l72.63.3c0,3.06,0,6.14,0,9.2h-76.53c-.46.09-1.04,1.36-1.33,1.87-.89,1.55-1.57,3.24-2.37,4.83l80.23.1v8.2h-82.93s-.46.34-.46.34l-2.44,6.36,85.83.1v8.8h-86.91s-2.53,6.5-2.53,6.5l89.43.1v8h-90.51s-1.12,6.5-1.12,6.5l91.64.3v8.8h.2v10.8h-.2v6l-91.63.1,1.93,6.51h89.71s0,8.39,0,8.39l-89.43.1c-.03.39,2.25,6.08,2.5,6.3.12.11.23.2.4.2h86.53s0,9.6,0,9.6l-84.43.1,2.53,6.71h81.9s0,7.99,0,7.99l-79.63.3,4.11,5.7.4.2h75.13c0,3.2,0,6.4,0,9.6l-71.83.1,4.25,5.86.25.06,67.33-.02c0,3,0,6,0,9l-60.82.1,3.74,5.9h57.08c0,3.33,0,6.67,0,10l-43.62.1,2.74,6.51h40.88c0,2.66,0,5.33,0,7.99l-24.61.3,1.53,6.11h23.09c0,4.19,0,8.39,0,12.59.47.01.94-.02,1.4,0s.94-.02,1.4,0c.57.02,1.28-.08,1.8,0,1.76.27,5.38,1.91,7.4,2.5,59.03,17.34,123.21-.33,162.05-48.22,20.24-24.97,30.89-54.97,32.42-87.12.17-3.65.14-7.14,0-10.8-1.24-33.1-12.09-63.71-33.02-89.32-39.18-47.96-103.02-65.76-162.4-48.37-1.74.51-5.02,2.01-6.45,2.25Z"/>
  <path class="cls-1" d="M578.08,231.1c-1.53,32.15-12.17,62.16-32.42,87.12-38.83,47.89-103.02,65.56-162.05,48.22-2.02-.59-5.64-2.23-7.4-2.5v-59.42h62.13c14.55-.76,28.57-5.61,40.37-14.04,18.91-13.52,30.97-35.57,31.55-58.98,22.61-.12,45.22-.17,67.82-.4Z"/>
  <path class="cls-1" d="M578.08,220.3c-9.1.05-18.21-.06-27.32,0-13.47.07-27.03.32-40.5.41,1.34-32.53-19.07-62.4-49.37-73.57-8.09-2.99-16.51-4.41-25.15-4.66h-59.53s0-57.61,0-57.61c1.43-.25,4.71-1.74,6.45-2.25,59.38-17.38,123.22.42,162.4,48.37,20.92,25.61,31.78,56.23,33.02,89.32Z"/>
  <path class="cls-14" d="M376.21,220.9c.75.21,2.63,1.34,3.21,1.89.88.84,1.91,2.9,2.69,3.51.22.17.17.29.41,0l16.55-57.87c2.86-6.9,12.67-6.13,14.46,1.05l17.51,93.03.45-.65,19.65-56.57c2.5-5.57,9.63-6.3,13.27-1.47l9.77,17.08c12.03-.01,24.05-.13,36.08-.21,13.47-.09,27.03-.34,40.5-.41,9.11-.05,18.22.06,27.32,0,.14,3.66.17,7.15,0,10.8-22.6.23-45.21.28-67.82.4-13.19.07-26.41.42-39.62.11-1.87-.46-3.27-1.45-4.47-2.93l-7.32-12.59-21.87,62.66c-3.37,6.42-12.79,5.02-14.25-2.04l-17.3-91.23-14.46,50.66c-1.81,4.9-7.15,5.09-11.61,2.12-1.07-.71-2.11-2.12-2.94-3.16-.59-.74-1.19-1.62-1.8-2.4-.51-.64-.85-1.16-1.4-1.8s-.32-1.04-1.6-1.2h0v-9h0c.27,0,.53,0,.8,0,.53.01,1.07-.03,1.6,0,.67.04,1.56.02,2.2.2Z"/>
  <polygon class="cls-11" points="371.61 205.09 371.61 211.9 279.97 211.6 281.1 205.08 371.61 205.09"/>
  <polygon class="cls-12" points="371.61 237.5 371.61 244.11 281.9 244.12 279.98 237.61 371.61 237.5"/>
  <polygon class="cls-12" points="371.61 190.49 371.61 197.09 282.18 196.99 284.7 190.48 371.61 190.49"/>
  <path class="cls-12" d="M371.61,252.51v6.6h-86.53c-.18,0-.28-.09-.4-.2-.25-.22-2.53-5.91-2.5-6.3l89.43-.1Z"/>
  <polygon class="cls-11" points="371.61 174.88 371.61 181.69 285.78 181.58 288.22 175.22 288.68 174.88 371.61 174.88"/>
  <polygon class="cls-11" points="371.61 268.71 371.61 275.52 289.7 275.53 287.18 268.82 371.61 268.71"/>
  <path class="cls-11" d="M371.61,159.88v6.8l-80.23-.1c.79-1.6,1.48-3.29,2.37-4.83.29-.51.88-1.78,1.33-1.87h76.53Z"/>
  <polygon class="cls-11" points="371.61 283.52 371.61 289.72 296.48 289.72 296.09 289.52 291.98 283.82 371.61 283.52"/>
  <path class="cls-7" d="M371.61,144.47c0,2.06,0,4.14,0,6.2l-72.63-.3,3.95-5.9h68.68Z"/>
  <path class="cls-1" d="M371.61,299.32c0,2,0,4,0,6l-67.33.02-.25-.06-4.25-5.86,71.83-.1Z"/>
  <path class="cls-11" d="M371.61,129.47c0,2.06,0,4.14,0,6.2l-63.02-.1,3.8-5.81.51-.29h58.72Z"/>
  <path class="cls-1" d="M371.61,314.33c0,2,0,4,0,6h-57.08s-3.74-5.9-3.74-5.9l60.82-.1Z"/>
  <path class="cls-8" d="M376.21,84.86v136.04c-.64-.18-1.53-.16-2.2-.2V84.86c.67-.02,1.6.1,2.2,0Z"/>
  <path class="cls-12" d="M371.61,114.47c0,2,0,4,0,6h-50.02c.87-.94,4.89-5.84,5.71-6h44.31Z"/>
  <path class="cls-11" d="M371.61,330.33c0,2.2,0,4.4,0,6.6h-40.88s-2.74-6.5-2.74-6.5l43.62-.1Z"/>
  <path class="cls-8" d="M376.41,235c-.33.21-.2.77-.2,1.11-.28,22.49,0,45.03,0,67.52v60.31c-.52-.08-1.23.02-1.8,0l.2-131.38c.61.79,1.21,1.69,1.8,2.44Z"/>
  <path class="cls-15" d="M374.01,84.86v135.84c-.53-.03-1.07.01-1.6,0V84.86c.54-.05,1.15.01,1.6,0Z"/>
  <path class="cls-12" d="M371.61,99.86c0,2.06,0,4.14,0,6.2l-34.01-.1c-.02-.32.3-.5.51-.69.64-.6,6.8-5.27,7.24-5.37l26.27-.04Z"/>
  <path class="cls-13" d="M373.21,230.91l-.2,133.04c-.47-.01-.94.01-1.4,0,0-4.26,0-8.52,0-12.78,0-2.16,0-4.33,0-6.49,0-2.7,0-5.41,0-8.11,0-2.23,0-4.46,0-6.69,0-3.38,0-6.76,0-10.14,0-2.03,0-4.06,0-6.08,0-3.04,0-6.09,0-9.13,0-2.03,0-4.06,0-6.08,0-3.24,0-6.49,0-9.73v-59.02c1.28.16,1.03.55,1.6,1.22Z"/>
  <path class="cls-10" d="M374.61,232.79l-.2,131.16c-.47-.02-.93.01-1.4,0l.2-132.98c.55.65.9,1.17,1.4,1.82Z"/>
  <path class="cls-11" d="M371.61,344.94c0,2.13,0,4.27,0,6.4h-23.09s-1.53-6.1-1.53-6.1l24.61-.3Z"/>
  <path class="cls-13" d="M372.41,84.86v135.84c-.27,0-.53,0-.8,0v-60.82c0-3.06,0-6.14,0-9.2,0-2.06,0-4.14,0-6.2,0-2.93,0-5.87,0-8.8,0-2.06,0-4.14,0-6.2,0-3,0-6,0-9,0-2,0-4,0-6,0-2.8,0-5.6,0-8.4,0-2.06,0-4.14,0-6.2,0-2.86-.01-5.74,0-8.6,0-1.79-.08-3.62,0-5.4.01-.33-.01-.67,0-1,.26-.02.54.03.8,0Z"/>
  <path class="cls-11" d="M371.61,85.86c-.08,1.79,0,3.61,0,5.4h-12.4c.16-.34.62-.58.94-.76,3.37-1.97,7.61-4.07,11.47-4.64Z"/>
  <path class="cls-9" d="M376.21,234.85c.83,1.04,2.07,2.7,3.14,3.42,4.46,2.97,9.8,2.78,11.61-2.12l14.46-50.66,17.3,91.23c1.46,7.06,10.88,8.46,14.25,2.04l21.87-62.66,7.32,12.59c1.2,1.48,2.6,2.47,4.47,2.93,13.21.31,26.43-.04,39.62-.11-.58,23.41-12.64,45.46-31.55,58.98-11.8,8.43-25.82,13.28-40.37,14.05h-62.13c0-22.17-.28-46.58,0-68.73,0-.34-.33-.75,0-.95Z"/>
  <path class="cls-9" d="M510.25,220.7c-12.03.08-24.05.2-36.08.21l-9.77-17.08c-3.64-4.83-10.77-4.1-13.27,1.47l-19.65,56.57-.45.65-17.51-93.03c-1.79-7.18-11.6-7.95-14.46-1.05l-16.55,57.87c-.24.29-.19.17-.41,0-.78-.61-1.81-2.67-2.69-3.51-.58-.56-2.46-1.68-3.21-1.89v-78.43h59.53c8.64.24,17.05,1.67,25.15,4.65,30.3,11.18,50.71,41.05,49.37,73.57Z"/>
  <rect class="cls-1" x="279.97" y="221.15" width="91.84" height="8.51"/>
  <g>
    <path class="cls-3" d="M317.16,90.94c0-18.68,15.2-33.82,33.88-33.82-18.68,0-33.88-15.2-33.88-33.88,0,18.68-15.14,33.88-33.88,33.88,18.74,0,33.88,15.14,33.88,33.82Z"/>
    <path class="cls-3" d="M268.16,76.39c7.39,0,13.36,6.01,13.36,13.36,0-7.35,6.01-13.36,13.36-13.36-7.35,0-13.36-5.97-13.36-13.36,0,7.39-5.97,13.36-13.36,13.36Z"/>
    <path class="cls-3" d="M302.48,31.75c-10.62,0-19.2-8.58-19.2-19.2,0,10.62-8.58,19.2-19.2,19.2,10.62,0,19.2,8.58,19.2,19.2,0-10.62,8.58-19.2,19.2-19.2Z"/>
  </g>
  <path class="cls-6" d="M283.32,57.07c18.68,0,33.82-15.2,33.82-33.88,0,18.68,15.2,33.88,33.88,33.88-18.68,0-33.88,15.14-33.88,33.88,0-18.74-15.14-33.88-33.82-33.88Z"/>
  <path class="cls-5" d="M281.53,89.73c0-7.39-6.01-13.36-13.36-13.36,7.35,0,13.36-6.01,13.36-13.36,0,7.35,5.97,13.36,13.36,13.36-7.39,0-13.36,5.97-13.36,13.36Z"/>
  <path class="cls-4" d="M264.09,31.74c10.62,0,19.2,8.58,19.2,19.2,0-10.62,8.58-19.2,19.2-19.2-10.62,0-19.2-8.58-19.2-19.2,0,10.62-8.58,19.2-19.2,19.2Z"/>
</svg>